<svg width="25" height="25" viewBox="0 0 25 25" fill="none" xmlns="http://www.w3.org/2000/svg">
<path fill-rule="evenodd" clip-rule="evenodd" d="M23.224 6.57292C23.3184 6.61332 23.404 6.67195 23.4758 6.74547C23.5475 6.81898 23.6041 6.90593 23.6422 7.00133C23.6803 7.09673 23.6993 7.19872 23.6979 7.30144C23.6966 7.40417 23.675 7.50563 23.6344 7.6L22.9167 7.29167L23.6354 7.6L23.6333 7.60417L23.6302 7.61146L23.6198 7.63646L23.5792 7.72396C23.3516 8.19591 23.0988 8.65526 22.8219 9.1C22.2665 9.99388 21.6223 10.8294 20.899 11.5938L21.9073 12.6031C22.0453 12.7512 22.1204 12.9471 22.1168 13.1495C22.1133 13.3519 22.0313 13.545 21.8881 13.6881C21.745 13.8313 21.5519 13.9133 21.3495 13.9168C21.1471 13.9204 20.9512 13.8453 20.8031 13.7073L19.7604 12.6656C19.0348 13.2766 18.2397 13.8 17.3917 14.225L18.3646 15.7198C18.4776 15.8936 18.5169 16.1051 18.4739 16.3079C18.431 16.5107 18.3092 16.688 18.1354 16.801C17.9616 16.914 17.7501 16.9534 17.5473 16.9104C17.3446 16.8674 17.1672 16.7456 17.0542 16.5719L15.9198 14.8281C15.1073 15.0937 14.2292 15.274 13.2823 15.3385V17.1875C13.2823 17.3947 13.2 17.5934 13.0535 17.7399C12.907 17.8864 12.7082 17.9688 12.501 17.9688C12.2938 17.9688 12.0951 17.8864 11.9486 17.7399C11.8021 17.5934 11.7198 17.3947 11.7198 17.1875V15.3385C10.8493 15.2795 9.98904 15.1166 9.15729 14.8531L8.03854 16.5719C7.98259 16.6579 7.91024 16.7321 7.82563 16.7902C7.74101 16.8483 7.64578 16.8891 7.54538 16.9104C7.44497 16.9317 7.34136 16.933 7.24046 16.9142C7.13955 16.8954 7.04333 16.857 6.95729 16.801C6.78352 16.688 6.66175 16.5107 6.61877 16.3079C6.59749 16.2075 6.5962 16.1039 6.61496 16.003C6.63372 15.9021 6.67218 15.8058 6.72812 15.7198L7.67917 14.2594C6.82409 13.8389 6.02224 13.3178 5.29062 12.7073L4.29062 13.7073C4.14335 13.8497 3.94604 13.9285 3.74119 13.9268C3.53635 13.9251 3.34037 13.8431 3.19545 13.6983C3.05053 13.5535 2.96827 13.3576 2.9664 13.1528C2.96452 12.9479 3.04317 12.7505 3.18542 12.6031L4.14792 11.6406C3.12466 10.5689 2.25905 9.35715 1.57708 8.04167C1.50891 7.90837 1.44362 7.77361 1.38125 7.6375L1.37083 7.61146L1.36667 7.60417V7.60104H1.36458C1.28281 7.41056 1.28005 7.19434 1.35692 7.00183C1.43379 6.80931 1.58399 6.65521 1.77448 6.57344C1.96497 6.49166 2.18013 6.48891 2.37265 6.56578C2.56517 6.64265 2.71927 6.79285 2.80104 6.98333V6.98542L2.80833 7L2.83854 7.06563C2.86632 7.12535 2.90972 7.21389 2.96875 7.33125C3.68992 8.72647 4.64309 9.98891 5.7875 11.0646C6.68958 11.9031 7.79479 12.675 9.11667 13.1833C10.1966 13.5965 11.3437 13.8062 12.5 13.8021C13.6803 13.8063 14.8508 13.5875 15.95 13.1573C17.2646 12.6396 18.3625 11.8625 19.2573 11.0229C20.4536 9.88697 21.4375 8.54648 22.1625 7.06458L22.1917 6.99896L22.1979 6.98542M23.224 6.57292C23.0336 6.49156 22.8187 6.49013 22.6265 6.56708C22.4344 6.64404 22.2806 6.79412 22.199 6.98438L23.224 6.57292Z" fill="#065CCB"/>
</svg>
