<svg width="58" height="50" viewBox="0 0 58 50" fill="none" xmlns="http://www.w3.org/2000/svg">
<g clip-path="url(#clip0_49_95)">
<path d="M51.7893 46.4286H5.36071C2.39643 46.4286 0.00357056 44.0357 0.00357056 41.0714V8.92857C0.00357056 5.96428 2.39643 3.57143 5.36071 3.57143H51.7893C54.7536 3.57143 57.1464 5.96428 57.1464 8.92857V41.0714C57.1464 44.0357 54.7536 46.4286 51.7893 46.4286ZM5.36071 7.14285C4.36071 7.14285 3.575 7.92857 3.575 8.92857V41.0714C3.575 42.0714 4.36071 42.8571 5.36071 42.8571H51.7893C52.7893 42.8571 53.575 42.0714 53.575 41.0714V8.92857C53.575 7.92857 52.7893 7.14285 51.7893 7.14285H5.36071Z" fill="#065CCB"/>
<path d="M28.575 32C26.075 32 23.7893 31 22.075 29.1786L3.325 9.25C2.64642 8.53571 2.68214 7.39286 3.39642 6.71429C4.11071 6.03571 5.25357 6.07143 5.93214 6.78571L24.6821 26.7143C26.7179 28.8929 30.4321 28.8929 32.4679 26.7143L51.2179 6.82143C51.8964 6.10714 53.0393 6.07143 53.7536 6.75C54.4679 7.42857 54.5036 8.57143 53.825 9.28571L35.075 29.2143C33.3607 31.0357 31.075 32.0357 28.575 32.0357V32Z" fill="#065CCB"/>
</g>
<defs>
<clipPath id="clip0_49_95">
<rect width="57.15" height="50" fill="white"/>
</clipPath>
</defs>
</svg>
