<svg width="34" height="34" viewBox="0 0 34 34" fill="none" xmlns="http://www.w3.org/2000/svg">
<path d="M33.608 17.1174C33.608 12.7433 31.8704 8.54843 28.7775 5.45551C25.6846 2.36259 21.4897 0.625007 17.1156 0.625007C12.9627 0.621172 8.96124 2.18422 5.91047 5.00194C2.85971 7.81965 0.984266 11.6846 0.658768 15.8247C0.33327 19.9649 1.58168 24.0754 4.15462 27.3352C6.72757 30.5951 10.4356 32.7643 14.5381 33.4095V21.8837H10.3538V17.1174H14.5405V13.4843C14.5405 9.35183 17.0025 7.06646 20.7699 7.06646C22.5746 7.06646 24.4618 7.38924 24.4618 7.38924V11.4487H22.3814C20.3316 11.4487 19.6955 12.721 19.6955 14.0239V17.1174H24.2686L23.5382 21.8837H19.6932V33.4095C23.5724 32.7952 27.1052 30.8168 29.6559 27.8303C32.2067 24.8437 33.6081 21.045 33.608 17.1174Z" fill="#1877F2"/>
<path d="M23.5359 21.8837L24.2663 17.1174H19.6932V14.0239C19.6932 12.721 20.3293 11.4487 22.3791 11.4487H24.4594V7.38687C24.4594 7.38687 22.5723 7.06409 20.7675 7.06409C16.9978 7.06409 14.5381 9.34946 14.5381 13.482V17.1174H10.3538V21.8837H14.5405V33.4095C16.2483 33.6782 17.9877 33.6782 19.6955 33.4095V21.8837H23.5359Z" fill="white"/>
</svg>
