<svg width="31" height="31" viewBox="0 0 31 31" fill="none" xmlns="http://www.w3.org/2000/svg">
<path d="M30.4008 15.6463C30.4008 14.3878 30.2986 13.4694 30.0776 12.517H15.7069V18.1972H24.1422C23.9722 19.6088 23.0538 21.7347 21.013 23.1632L20.9844 23.3534L25.5281 26.8734L25.8429 26.9048C28.734 24.2347 30.4008 20.3061 30.4008 15.6463Z" fill="#4285F4"/>
<path d="M15.7069 30.6122C19.8395 30.6122 23.3088 29.2516 25.8429 26.9048L21.013 23.1632C19.7205 24.0646 17.9857 24.6938 15.7069 24.6938C11.6593 24.6938 8.22394 22.0238 6.99933 18.3333L6.81983 18.3486L2.09516 22.0051L2.03337 22.1768C4.55035 27.1768 9.72043 30.6122 15.7069 30.6122Z" fill="#34A853"/>
<path d="M6.99933 18.3333C6.67621 17.381 6.4892 16.3605 6.4892 15.3061C6.4892 14.2516 6.67621 13.2312 6.98233 12.2789L6.97377 12.076L2.18989 8.36084L2.03337 8.43529C0.996001 10.5101 0.400757 12.8401 0.400757 15.3061C0.400757 17.7721 0.996001 20.1019 2.03337 22.1768L6.99933 18.3333Z" fill="#FBBC05"/>
<path d="M15.7069 5.91833C18.581 5.91833 20.5197 7.15982 21.6252 8.1973L25.9449 3.97959C23.2919 1.51361 19.8395 0 15.7069 0C9.72043 0 4.55035 3.43535 2.03337 8.43531L6.98233 12.2789C8.22394 8.58843 11.6593 5.91833 15.7069 5.91833Z" fill="#EB4335"/>
</svg>
