<svg width="35" height="35" viewBox="0 0 35 35" fill="none" xmlns="http://www.w3.org/2000/svg">
<path d="M15.1977 3.03734C15.8404 2.49097 16.6564 2.19098 17.5 2.19098C18.3436 2.19098 19.1596 2.49097 19.8023 3.03734L30.4664 12.1012C30.8589 12.4349 31.1742 12.8499 31.3905 13.3176C31.6067 13.7852 31.7187 14.2942 31.7188 14.8094V28.9844C31.7188 29.7096 31.4307 30.4051 30.9179 30.9179C30.4051 31.4307 29.7096 31.7188 28.9844 31.7188H24.6094C23.8842 31.7188 23.1887 31.4307 22.6759 30.9179C22.1631 30.4051 21.875 29.7096 21.875 28.9844V21.875C21.875 21.2965 21.6459 20.7416 21.2378 20.3317C20.8297 19.9217 20.2758 19.6901 19.6973 19.6875H15.3016C14.7233 19.6904 14.1697 19.9221 13.7618 20.3321C13.354 20.742 13.125 21.2967 13.125 21.875V28.9844C13.125 29.3435 13.0543 29.699 12.9169 30.0308C12.7794 30.3625 12.578 30.664 12.3241 30.9179C12.0702 31.1718 11.7688 31.3732 11.437 31.5106C11.1053 31.648 10.7497 31.7188 10.3906 31.7188H6.01562C5.29042 31.7188 4.59492 31.4307 4.08213 30.9179C3.56934 30.4051 3.28125 29.7096 3.28125 28.9844V14.8094C3.28128 14.2942 3.39329 13.7852 3.60953 13.3176C3.82577 12.8499 4.14107 12.4349 4.53359 12.1012L15.1977 3.03734Z" fill="#065CCB"/>
</svg>
