<svg width="36" height="36" viewBox="0 0 36 36" fill="none" xmlns="http://www.w3.org/2000/svg">
    <path d="M9.59999 7.13999C11.8355 4.94922 14.8452 3.72919 17.9751 3.74499C21.1051 3.7608 24.1023 5.01118 26.3156 7.22441C28.5288 9.43765 29.7792 12.4349 29.795 15.5648C29.8108 18.6948 28.5908 21.7045 26.4 23.94L20.121 30.219C19.5584 30.7814 18.7955 31.0973 18 31.0973C17.2045 31.0973 16.4416 30.7814 15.879 30.219L9.59999 23.94C7.37232 21.7121 6.12085 18.6906 6.12085 15.54C6.12085 12.3894 7.37232 9.36789 9.59999 7.13999Z" stroke="#1E1E1E" stroke-width="2.5" stroke-linejoin="round"/>
    <path d="M18 20.04C20.4853 20.04 22.5 18.0253 22.5 15.54C22.5 13.0547 20.4853 11.04 18 11.04C15.5147 11.04 13.5 13.0547 13.5 15.54C13.5 18.0253 15.5147 20.04 18 20.04Z" stroke="#1E1E1E" stroke-width="2.5" stroke-linecap="round" stroke-linejoin="round"/>
</svg>
