<svg width="75" height="81" viewBox="0 0 75 81" fill="none" xmlns="http://www.w3.org/2000/svg">
<path d="M33.0197 79.5482C33.0118 69.2974 33.0047 59.0465 32.9954 48.7957C32.9926 45.7127 33.0247 42.6286 32.945 39.5474C32.9281 38.8937 32.6666 38.2597 31.9299 37.7811C29.0064 35.8817 26.1913 33.8158 23.2798 31.897C22.6824 31.5032 22.6706 31.0863 22.6707 30.5436C22.6729 22.8256 22.6741 15.1076 22.6754 7.38952C22.6757 5.02385 22.6754 2.65818 22.6754 0C24.2344 1.02251 25.5815 1.89174 26.9134 2.78371C28.2204 3.65898 29.5135 4.55497 30.8097 5.44622C32.5183 6.62101 34.216 7.81166 35.9329 8.97419C37.8828 10.2946 39.8611 11.5734 41.8039 12.9041C43.476 14.0493 45.1036 15.2594 46.7737 16.4076C47.9029 17.1838 49.0812 17.8883 50.2191 18.6524C50.8284 19.0615 51.5014 19.4451 51.952 19.998C52.2759 20.3954 52.4042 21.0539 52.4048 21.5961C52.4079 24.2766 52.3632 26.958 52.2694 29.6368C52.2562 30.0139 51.9687 30.4985 51.657 30.7285C50.0107 31.9429 48.3161 33.0917 46.5492 34.4075C46.4186 34.8019 46.3411 35.0519 46.3408 35.3021C46.3347 40.7759 46.3328 46.2498 46.3471 51.7236C46.3481 52.1138 46.4791 52.5037 46.5496 52.8937C46.5496 52.8937 46.5726 52.9687 46.5179 53.0899C46.4216 53.5354 46.3433 53.8598 46.3434 54.1842C46.346 62.4467 46.3568 70.7092 46.338 79.0476C45.7952 79.3577 45.2843 79.7849 44.7654 79.7948C41.4187 79.8584 38.0702 79.844 34.7225 79.8203C34.1543 79.8162 33.5873 79.6432 33.0197 79.5482Z" fill="#065CCB"/>
<path d="M19.7097 54.9447C19.7298 58.8765 19.7568 62.8083 19.7678 66.7401C19.7768 69.9627 19.7664 73.1853 19.7657 76.408C19.7655 77.4322 19.7691 78.4564 19.6644 79.593C18.7988 79.7643 18.0401 79.8686 17.2807 79.8741C13.7894 79.8993 10.298 79.8969 6.80655 79.9043C6.80655 79.9043 6.8254 79.9036 6.80775 79.8503C6.72129 79.6866 6.65249 79.5763 6.58368 79.4659C6.12276 77.0023 5.66754 74.5377 5.19923 72.0755C4.76476 69.7913 4.29875 67.5129 3.87794 65.2262C3.16407 61.347 2.48443 57.4615 1.77179 53.582C1.31562 51.0987 0.822478 48.6222 0.35377 46.1412C0.22738 45.4721 0.124858 44.7984 0.0201081 44.1255C-0.0923022 43.4034 0.276803 43.0333 0.871983 42.6334C3.66471 40.757 6.40097 38.7971 9.16796 36.8822C11.9537 34.9544 14.7401 33.0271 17.554 31.1408C18.1522 30.7398 18.8704 30.5172 19.7571 30.1096C19.7571 32.9378 19.7571 35.4761 19.7012 38.1994C19.6093 38.5985 19.5421 38.8125 19.5419 39.0267C19.5352 44.0502 19.5329 49.0738 19.5424 54.0973C19.5429 54.3799 19.6514 54.6623 19.7097 54.9447Z" fill="#065CCB"/>
<path d="M55.8998 30.2988C57.7481 31.5474 59.597 32.7948 61.4442 34.045C62.3787 34.6775 63.3101 35.3148 64.2425 35.9504C67.2344 37.9896 70.2257 40.0296 73.2187 42.0671C73.426 42.2082 73.6321 42.3657 73.8621 42.4564C74.8849 42.8599 75.148 43.4912 74.9277 44.623C74.112 48.8142 73.4581 53.0366 72.6773 57.235C72.0927 60.3786 71.3834 63.4988 70.7743 66.6381C70.419 68.4692 70.1714 70.321 69.8397 72.1571C69.4318 74.4149 68.9842 76.6655 68.5608 78.9205C68.5139 79.1701 68.5131 79.4283 68.3315 79.7428C63.9012 79.8208 59.6302 79.8385 55.3593 79.8562C55.3593 79.8562 55.3734 79.8523 55.3915 79.7572C55.4123 75.2022 55.4173 70.7423 55.4172 66.2824C55.4167 54.7671 55.4081 43.2518 55.4327 31.7365C55.4338 31.2569 55.7373 30.778 55.8998 30.2988Z" fill="#065CCB"/>
<path d="M55.8971 30.2256C55.7965 30.7842 55.5082 31.262 55.5072 31.7405C55.4837 43.2298 55.4919 54.7192 55.4924 66.2086C55.4925 70.6584 55.4878 75.1083 55.4691 79.6602C55.3812 79.4321 55.247 79.1018 55.2468 78.7714C55.2367 62.8523 55.2354 46.9332 55.2585 31.0142C55.2589 30.6923 54.8035 29.7915 55.8971 30.2256Z" fill="#065CCB"/>
<path d="M46.1791 78.9279C46.1603 70.6559 46.1386 62.3839 46.1334 54.1119C46.1332 53.7871 46.2899 53.4624 46.4623 53.0542C46.5748 60.9381 46.5987 68.9054 46.6214 76.8728C46.6231 77.494 46.6157 78.1153 46.4864 78.8356C46.3603 78.9347 46.1791 78.9279 46.1791 78.9279Z" fill="#065CCB"/>
<path d="M46.5636 52.7882C46.4791 52.5037 46.3481 52.1138 46.3471 51.7236C46.3328 46.2498 46.3347 40.7759 46.3408 35.3021C46.3411 35.0519 46.4186 34.8019 46.5068 34.4694C46.5615 40.4856 46.5695 46.5841 46.5636 52.7882Z" fill="#065CCB"/>
<path d="M19.7651 55.4951C19.6656 55.3084 19.5356 55.0126 19.5349 54.7165C19.5236 49.4532 19.5263 44.1898 19.5344 38.9265C19.5347 38.7021 19.6151 38.4778 19.7063 38.1646C19.7679 43.8458 19.7814 49.6159 19.7651 55.4951Z" fill="#065CCB"/>
<path d="M55.4089 79.9053C59.648 79.7217 63.9416 79.6879 68.3458 79.6602C68.2718 79.8342 68.0872 80.1489 67.9028 80.1484C63.7563 80.1383 59.6099 80.0935 55.4089 79.9053Z" fill="#065CCB"/>
<path d="M6.63907 79.4799C6.69382 79.522 6.76257 79.6325 6.8493 79.8057C6.79589 79.7617 6.72448 79.655 6.63907 79.4799Z" fill="#065CCB"/>
</svg>
