<svg width="31" height="31" viewBox="0 0 31 31" fill="none" xmlns="http://www.w3.org/2000/svg">
<path d="M11.7632 3.45391C12.9249 2.87917 14.2039 2.5812 15.5 2.58332C20.314 2.58332 24.2187 6.63399 24.2187 11.6314V12.5421C24.2172 13.6291 24.5274 14.6937 25.1125 15.6098L26.5437 17.8366C27.8496 19.871 26.8524 22.6364 24.5804 23.2797C18.6435 24.961 12.3564 24.961 6.41954 23.2797C4.1475 22.6364 3.15033 19.871 4.45621 17.8379L5.88737 15.6098C6.47256 14.6937 6.78276 13.6291 6.78121 12.5421V11.6314C6.78121 10.2442 7.08217 8.92928 7.62079 7.75386M9.68746 24.5417C10.5335 26.7995 12.8159 28.4167 15.5 28.4167C15.816 28.4167 16.126 28.3951 16.43 28.3521M21.3125 24.5417C20.9626 25.4637 20.3838 26.2816 19.6307 26.9183" stroke="#1E1E1E" stroke-width="2.5" stroke-linecap="round"/>
</svg>
