<svg width="25" height="25" viewBox="0 0 25 25" fill="none" xmlns="http://www.w3.org/2000/svg">
<path d="M3.41146 15.9333C2.52604 14.7833 2.08333 14.2073 2.08333 12.5C2.08333 10.7917 2.52604 10.2177 3.41146 9.06666C5.17917 6.77083 8.14375 4.16666 12.5 4.16666C16.8563 4.16666 19.8208 6.77083 21.5885 9.06666C22.474 10.2187 22.9167 10.7927 22.9167 12.5C22.9167 14.2083 22.474 14.7823 21.5885 15.9333C19.8208 18.2292 16.8563 20.8333 12.5 20.8333C8.14375 20.8333 5.17917 18.2292 3.41146 15.9333Z" stroke="#065CCB" stroke-width="1.5625"/>
<path d="M15.625 12.5C15.625 13.3288 15.2958 14.1237 14.7097 14.7097C14.1237 15.2958 13.3288 15.625 12.5 15.625C11.6712 15.625 10.8763 15.2958 10.2903 14.7097C9.70424 14.1237 9.375 13.3288 9.375 12.5C9.375 11.6712 9.70424 10.8763 10.2903 10.2903C10.8763 9.70424 11.6712 9.375 12.5 9.375C13.3288 9.375 14.1237 9.70424 14.7097 10.2903C15.2958 10.8763 15.625 11.6712 15.625 12.5Z" stroke="#065CCB" stroke-width="1.5625"/>
</svg>
