<svg width="35" height="35" viewBox="0 0 35 35" fill="none" xmlns="http://www.w3.org/2000/svg">
<path fill-rule="evenodd" clip-rule="evenodd" d="M23.3334 13.125C23.3334 14.6721 22.7188 16.1558 21.6249 17.2498C20.5309 18.3438 19.0472 18.9584 17.5001 18.9584C15.953 18.9584 14.4693 18.3438 13.3753 17.2498C12.2813 16.1558 11.6667 14.6721 11.6667 13.125C11.6667 11.5779 12.2813 10.0942 13.3753 9.00023C14.4693 7.90627 15.953 7.29169 17.5001 7.29169C19.0472 7.29169 20.5309 7.90627 21.6249 9.00023C22.7188 10.0942 23.3334 11.5779 23.3334 13.125ZM20.4167 13.125C20.4167 13.8986 20.1095 14.6404 19.5625 15.1874C19.0155 15.7344 18.2736 16.0417 17.5001 16.0417C16.7265 16.0417 15.9847 15.7344 15.4377 15.1874C14.8907 14.6404 14.5834 13.8986 14.5834 13.125C14.5834 12.3515 14.8907 11.6096 15.4377 11.0626C15.9847 10.5156 16.7265 10.2084 17.5001 10.2084C18.2736 10.2084 19.0155 10.5156 19.5625 11.0626C20.1095 11.6096 20.4167 12.3515 20.4167 13.125Z" fill="#AEAEB4"/>
<path fill-rule="evenodd" clip-rule="evenodd" d="M17.5 1.45834C8.64067 1.45834 1.45837 8.64064 1.45837 17.5C1.45837 26.3594 8.64067 33.5417 17.5 33.5417C26.3594 33.5417 33.5417 26.3594 33.5417 17.5C33.5417 8.64064 26.3594 1.45834 17.5 1.45834ZM4.37504 17.5C4.37504 20.5479 5.41483 23.3538 7.15754 25.5821C8.38173 23.9752 9.96068 22.6729 11.7712 21.7769C13.5817 20.8809 15.5747 20.4154 17.5948 20.4167C19.5889 20.4144 21.5572 20.8674 23.3496 21.7414C25.142 22.6153 26.7111 23.8871 27.9373 25.4596C29.2009 23.8023 30.0517 21.868 30.4193 19.8167C30.7868 17.7654 30.6607 15.656 30.0512 13.6631C29.4417 11.6702 28.3664 9.85112 26.9143 8.35632C25.4622 6.86151 23.675 5.73397 21.7006 5.067C19.7262 4.40003 17.6214 4.2128 15.5603 4.5208C13.4991 4.82881 11.541 5.62319 9.84783 6.83821C8.15467 8.05324 6.77518 9.65399 5.8235 11.508C4.87182 13.362 4.3753 15.416 4.37504 17.5ZM17.5 30.625C14.487 30.6299 11.5648 29.5933 9.22837 27.6908C10.1687 26.3442 11.4205 25.2448 12.8772 24.4861C14.3339 23.7274 15.9524 23.3319 17.5948 23.3333C19.2168 23.3319 20.8156 23.7175 22.2586 24.4582C23.7015 25.1988 24.9469 26.2731 25.8913 27.5917C23.5368 29.5561 20.5664 30.6298 17.5 30.625Z" fill="#AEAEB4"/>
</svg>
