<svg width="35" height="35" viewBox="0 0 35 35" fill="none" xmlns="http://www.w3.org/2000/svg">
<path fill-rule="evenodd" clip-rule="evenodd" d="M15.3125 2.91666C13.3359 2.91682 11.3879 3.38969 9.63121 4.29579C7.87449 5.2019 6.35993 6.51497 5.21389 8.12546C4.06785 9.73595 3.32356 11.5972 3.04312 13.5538C2.76268 15.5104 2.95422 17.5058 3.60176 19.3733C4.24931 21.2409 5.33407 22.9265 6.76556 24.2896C8.19704 25.6527 9.93374 26.6536 11.8308 27.209C13.7278 27.7644 15.7301 27.858 17.6707 27.4822C19.6112 27.1063 21.4338 26.2718 22.9863 25.0483L28.3121 30.3742C28.5871 30.6398 28.9555 30.7868 29.3379 30.7835C29.7203 30.7801 30.086 30.6268 30.3564 30.3564C30.6268 30.086 30.7802 29.7202 30.7835 29.3379C30.7868 28.9555 30.6398 28.5871 30.3742 28.3121L25.0483 22.9862C26.4892 21.1584 27.3863 18.9618 27.637 16.6479C27.8878 14.334 27.482 11.9963 26.4662 9.90221C25.4503 7.80815 23.8655 6.04238 21.8929 4.80699C19.9204 3.5716 17.64 2.9165 15.3125 2.91666ZM5.83334 15.3125C5.83334 12.7985 6.83203 10.3874 8.60972 8.60971C10.3874 6.83202 12.7985 5.83332 15.3125 5.83332C17.8265 5.83332 20.2376 6.83202 22.0153 8.60971C23.793 10.3874 24.7917 12.7985 24.7917 15.3125C24.7917 17.8265 23.793 20.2376 22.0153 22.0153C20.2376 23.793 17.8265 24.7917 15.3125 24.7917C12.7985 24.7917 10.3874 23.793 8.60972 22.0153C6.83203 20.2376 5.83334 17.8265 5.83334 15.3125Z" fill="#AEAEB4"/>
</svg>
